<svg xmlns="http://www.w3.org/2000/svg" viewBox="0 0 133.83 91.24"><defs><style>.cls-1{fill:#4418ad;}</style></defs><title>logo</title><g id="OBJECTS"><rect class="cls-1" x="275.04" y="234.27" width="21.46" height="21.46" transform="translate(83.18 -329.69) rotate(45)"/><rect class="cls-1" x="184.86" y="234.27" width="21.46" height="21.46" transform="translate(56.76 -265.92) rotate(45)"/><path d="M278,287.64l28.29-38.34a6.31,6.31,0,0,0,1.32-4,7.94,7.94,0,0,0-1.41-4.3l-27.7-38.42a7.52,7.52,0,0,0-2.71-2.42,6.6,6.6,0,0,0-3.18-.83,9.3,9.3,0,0,0-6,2.47,7.12,7.12,0,0,0-2.66,5.93,8.06,8.06,0,0,0,1.73,5.25l0,0,0,.05,22.19,30.12.86,1.17.87,1.18-.87,1.18-.86,1.17L266.44,277.1a10.32,10.32,0,0,0-2.26,5.82,6.67,6.67,0,0,0,2.51,5.3,8.34,8.34,0,0,0,5.67,2.4A6.39,6.39,0,0,0,278,287.64Z" transform="translate(-173.76 -199.38)"/><path d="M203.37,287.64,175.09,249.3a6.26,6.26,0,0,1-1.33-4,8,8,0,0,1,1.42-4.3l27.7-38.42a7.49,7.49,0,0,1,2.7-2.42,6.65,6.65,0,0,1,3.18-.83,9.3,9.3,0,0,1,6,2.47,7.15,7.15,0,0,1,2.66,5.93,8.06,8.06,0,0,1-1.73,5.25l0,0,0,.05-22.18,30.12-.87,1.17-.86,1.18.86,1.18.87,1.17,21.47,29.17a10.25,10.25,0,0,1,2.26,5.82,6.66,6.66,0,0,1-2.5,5.3,8.36,8.36,0,0,1-5.67,2.4A6.4,6.4,0,0,1,203.37,287.64Z" transform="translate(-173.76 -199.38)"/><path class="cls-1" d="M253.13,216.6c-.24,0-.49,0-.74,0a8.64,8.64,0,0,0-4.31,1.15,9.41,9.41,0,0,0-3.31,3.27l-23.41,38.8a9,9,0,0,0-1.32,4,8.6,8.6,0,0,0,2.49,6.89,9.08,9.08,0,0,0,5.73,2.77c.25,0,.51,0,.76,0a8.82,8.82,0,0,0,4.33-1.17,9.33,9.33,0,0,0,3.29-3.26L260,230.23a9.07,9.07,0,0,0,1.34-4,8.67,8.67,0,0,0-2.41-6.84A9,9,0,0,0,253.13,216.6Z" transform="translate(-173.76 -199.38)"/></g></svg>